{
  "accessors": [
    {
      "bufferView": 2,
      "componentType": 5126,
      "count": 65532,
      "max": [
        4.652408123016357,
        7.761260986328125,
        9.251694679260254
      ],
      "min": [
        -6.960538864135742,
        -5.4983601570129395,
        -4.365131855010986
      ],
      "type": "VEC3"
    },
    {
      "bufferView": 2,
      "byteOffset": 786384,
      "componentType": 5126,
      "count": 65532,
      "max": [
        0.9999189972877502,
        0.9990954995155334,
        0.9999489784240723
      ],
      "min": [
        -0.999958336353302,
        -0.9999998807907104,
        -0.9999921321868896
      ],
      "type": "VEC3"
    },
    {
      "bufferView": 1,
      "componentType": 5126,
      "count": 65532,
      "max": [
        0.9992679953575134,
        0.9992629885673523
      ],
      "min": [
        0.0007319999858736992,
        0.000737000023946166
      ],
      "type": "VEC2"
    },
    {
      "bufferView": 0,
      "componentType": 5125,
      "count": 342060,
      "type": "SCALAR"
    },
    {
      "bufferView": 2,
      "byteOffset": 1572768,
      "componentType": 5126,
      "count": 65533,
      "max": [
        5.5533127784729,
        7.69455623626709,
        7.3125081062316895
      ],
      "min": [
        -6.963273048400879,
        -18.545740127563477,
        -2.9356069564819336
      ],
      "type": "VEC3"
    },
    {
      "bufferView": 2,
      "byteOffset": 2359164,
      "componentType": 5126,
      "count": 65533,
      "max": [
        0.9999843835830688,
        0.9999601244926453,
        0.9997990131378174
      ],
      "min": [
        -0.9998327493667603,
        -0.9999963641166687,
        -0.9999996423721313
      ],
      "type": "VEC3"
    },
    {
      "bufferView": 1,
      "byteOffset": 524256,
      "componentType": 5126,
      "count": 65533,
      "max": [
        0.9992679953575134,
        0.9960700273513794
      ],
      "min": [
        0.0007319999858736992,
        0.000737000023946166
      ],
      "type": "VEC2"
    },
    {
      "bufferView": 0,
      "byteOffset": 1368240,
      "componentType": 5125,
      "count": 347013,
      "type": "SCALAR"
    },
    {
      "bufferView": 2,
      "byteOffset": 3145560,
      "componentType": 5126,
      "count": 65532,
      "max": [
        2.9793269634246826,
        1.3386479616165161,
        7.737800121307373
      ],
      "min": [
        -5.887641906738281,
        -18.548870086669922,
        -1.4770920276641846
      ],
      "type": "VEC3"
    },
    {
      "bufferView": 2,
      "byteOffset": 3931944,
      "componentType": 5126,
      "count": 65532,
      "max": [
        0.9999495148658752,
        0.9978511333465576,
        0.9999569058418274
      ],
      "min": [
        -0.9999947547912598,
        -0.9992303848266602,
        -0.9999904632568359
      ],
      "type": "VEC3"
    },
    {
      "bufferView": 1,
      "byteOffset": 1048520,
      "componentType": 5126,
      "count": 65532,
      "max": [
        0.9992679953575134,
        0.9974210262298584
      ],
      "min": [
        0.0007319999858736992,
        0.000737000023946166
      ],
      "type": "VEC2"
    },
    {
      "bufferView": 0,
      "byteOffset": 2756292,
      "componentType": 5125,
      "count": 349197,
      "type": "SCALAR"
    },
    {
      "bufferView": 2,
      "byteOffset": 4718328,
      "componentType": 5126,
      "count": 65532,
      "max": [
        4.707913875579834,
        7.894979000091553,
        8.461094856262207
      ],
      "min": [
        -5.477095127105713,
        -5.474201202392578,
        -4.895646095275879
      ],
      "type": "VEC3"
    },
    {
      "bufferView": 2,
      "byteOffset": 5504712,
      "componentType": 5126,
      "count": 65532,
      "max": [
        0.9999826550483704,
        0.9975226521492004,
        0.9999207854270935
      ],
      "min": [
        -0.9999731183052063,
        -0.9999966621398926,
        -0.9999853372573853
      ],
      "type": "VEC3"
    },
    {
      "bufferView": 1,
      "byteOffset": 1572776,
      "componentType": 5126,
      "count": 65532,
      "max": [
        0.9990230202674866,
        0.9976670145988464
      ],
      "min": [
        0.0007319999858736992,
        0.006630999967455864
      ],
      "type": "VEC2"
    },
    {
      "bufferView": 0,
      "byteOffset": 4153080,
      "componentType": 5125,
      "count": 351981,
      "type": "SCALAR"
    },
    {
      "bufferView": 2,
      "byteOffset": 6291096,
      "componentType": 5126,
      "count": 65532,
      "max": [
        2.938647985458374,
        7.883321762084961,
        1.8018219470977783
      ],
      "min": [
        -8.611115455627441,
        -5.458847999572754,
        -4.755497932434082
      ],
      "type": "VEC3"
    },
    {
      "bufferView": 2,
      "byteOffset": 7077480,
      "componentType": 5126,
      "count": 65532,
      "max": [
        0.9999882578849792,
        0.9998482465744019,
        0.9999423623085022
      ],
      "min": [
        -0.9999603629112244,
        -0.9999607801437378,
        -0.999993622303009
      ],
      "type": "VEC3"
    },
    {
      "bufferView": 1,
      "byteOffset": 2097032,
      "componentType": 5126,
      "count": 65532,
      "max": [
        0.9992679953575134,
        0.9980350136756897
      ],
      "min": [
        0.0007319999858736992,
        0.000737000023946166
      ],
      "type": "VEC2"
    },
    {
      "bufferView": 0,
      "byteOffset": 5561004,
      "componentType": 5125,
      "count": 341913,
      "type": "SCALAR"
    },
    {
      "bufferView": 2,
      "byteOffset": 7863864,
      "componentType": 5126,
      "count": 8434,
      "max": [
        1.3737239837646484,
        7.737366199493408,
        1.0241520404815674
      ],
      "min": [
        -2.103611946105957,
        1.1946990489959717,
        -4.009571075439453
      ],
      "type": "VEC3"
    },
    {
      "bufferView": 2,
      "byteOffset": 7965072,
      "componentType": 5126,
      "count": 8434,
      "max": [
        0.9997239708900452,
        0.9867337346076965,
        0.9795098900794983
      ],
      "min": [
        -0.9964810013771057,
        -0.9992370009422302,
        -0.999945342540741
      ],
      "type": "VEC3"
    },
    {
      "bufferView": 1,
      "byteOffset": 2621288,
      "componentType": 5126,
      "count": 8434,
      "max": [
        0.9990230202674866,
        0.9507550001144409
      ],
      "min": [
        0.009154999628663063,
        0.11371699720621109
      ],
      "type": "VEC2"
    },
    {
      "bufferView": 0,
      "byteOffset": 6928656,
      "componentType": 5125,
      "count": 43602,
      "type": "SCALAR"
    }
  ],
  "asset": {
    "extras": {
      "author": "Geoffrey Marchal (https://sketchfab.com/geoffreymarchal)",
      "license": "CC-BY-NC-4.0 (http://creativecommons.org/licenses/by-nc/4.0/)",
      "source": "https://sketchfab.com/3d-models/clock-in-the-shape-of-obelisk-865cddef37b84934914b46a12fc0ecce",
      "title": "Clock in the shape of obelisk"
    },
    "generator": "Sketchfab-12.68.0",
    "version": "2.0"
  },
  "bufferViews": [
    {
      "buffer": 0,
      "byteLength": 7103064,
      "name": "floatBufferViews",
      "target": 34963
    },
    {
      "buffer": 0,
      "byteLength": 2688760,
      "byteOffset": 7103064,
      "byteStride": 8,
      "name": "floatBufferViews",
      "target": 34962
    },
    {
      "buffer": 0,
      "byteLength": 8066280,
      "byteOffset": 9791824,
      "byteStride": 12,
      "name": "floatBufferViews",
      "target": 34962
    }
  ],
  "buffers": [
    {
      "byteLength": 17858104,
      "uri": "scene.bin"
    }
  ],
  "images": [
    {
      "uri": "textures/Material_0_baseColor.jpeg"
    }
  ],
  "materials": [
    {
      "doubleSided": true,
      "name": "Material_0",
      "pbrMetallicRoughness": {
        "baseColorTexture": {
          "index": 0
        },
        "metallicFactor": 0.0
      }
    }
  ],
  "meshes": [
    {
      "name": "Object_0",
      "primitives": [
        {
          "attributes": {
            "NORMAL": 1,
            "POSITION": 0,
            "TEXCOORD_0": 2
          },
          "indices": 3,
          "material": 0,
          "mode": 4
        }
      ]
    },
    {
      "name": "Object_1",
      "primitives": [
        {
          "attributes": {
            "NORMAL": 5,
            "POSITION": 4,
            "TEXCOORD_0": 6
          },
          "indices": 7,
          "material": 0,
          "mode": 4
        }
      ]
    },
    {
      "name": "Object_2",
      "primitives": [
        {
          "attributes": {
            "NORMAL": 9,
            "POSITION": 8,
            "TEXCOORD_0": 10
          },
          "indices": 11,
          "material": 0,
          "mode": 4
        }
      ]
    },
    {
      "name": "Object_3",
      "primitives": [
        {
          "attributes": {
            "NORMAL": 13,
            "POSITION": 12,
            "TEXCOORD_0": 14
          },
          "indices": 15,
          "material": 0,
          "mode": 4
        }
      ]
    },
    {
      "name": "Object_4",
      "primitives": [
        {
          "attributes": {
            "NORMAL": 17,
            "POSITION": 16,
            "TEXCOORD_0": 18
          },
          "indices": 19,
          "material": 0,
          "mode": 4
        }
      ]
    },
    {
      "name": "Object_5",
      "primitives": [
        {
          "attributes": {
            "NORMAL": 21,
            "POSITION": 20,
            "TEXCOORD_0": 22
          },
          "indices": 23,
          "material": 0,
          "mode": 4
        }
      ]
    }
  ],
  "nodes": [
    {
      "children": [
        1
      ],
      "matrix": [
        0.701216995716095,
        -1.0279508468072444e-16,
        0.7129479050636292,
        0.0,
        5.551115123125783e-17,
        -1.0,
        -1.3877787807814457e-16,
        0.0,
        0.7129479050636292,
        1.2794587516486877e-16,
        -0.701216995716095,
        0.0,
        -2.0096302032470703,
        -3.1489491462707537,
        7.944274425506591,
        1.0
      ],
      "name": "Sketchfab_model"
    },
    {
      "children": [
        2,
        3,
        4,
        5,
        6,
        7
      ],
      "name": "pendule.obj.cleaner.materialmerger.gles"
    },
    {
      "mesh": 0,
      "name": "Object_2"
    },
    {
      "mesh": 1,
      "name": "Object_3"
    },
    {
      "mesh": 2,
      "name": "Object_4"
    },
    {
      "mesh": 3,
      "name": "Object_5"
    },
    {
      "mesh": 4,
      "name": "Object_6"
    },
    {
      "mesh": 5,
      "name": "Object_7"
    }
  ],
  "samplers": [
    {
      "magFilter": 9729,
      "minFilter": 9987,
      "wrapS": 10497,
      "wrapT": 10497
    }
  ],
  "scene": 0,
  "scenes": [
    {
      "name": "Sketchfab_Scene",
      "nodes": [
        0
      ]
    }
  ],
  "textures": [
    {
      "sampler": 0,
      "source": 0
    }
  ]
}
