{
  "accessors": [
    {
      "bufferView": 2,
      "componentType": 5126,
      "count": 65532,
      "max": [
        0.6334319710731506,
        0.6945539712905884,
        0.8602839708328247
      ],
      "min": [
        0.02621898055076599,
        0.0,
        0.012140989303588867
      ],
      "type": "VEC3"
    },
    {
      "bufferView": 2,
      "byteOffset": 786384,
      "componentType": 5126,
      "count": 65532,
      "max": [
        0.9999865293502808,
        0.9999943971633911,
        0.9999546408653259
      ],
      "min": [
        -0.9998834729194641,
        -0.9997230768203735,
        -0.9994796514511108
      ],
      "type": "VEC3"
    },
    {
      "bufferView": 1,
      "componentType": 5126,
      "count": 65532,
      "max": [
        0.5226629972457886,
        0.765483021736145
      ],
      "min": [
        0.0,
        0.0
      ],
      "type": "VEC2"
    },
    {
      "bufferView": 0,
      "componentType": 5125,
      "count": 336273,
      "type": "SCALAR"
    },
    {
      "bufferView": 2,
      "byteOffset": 1572768,
      "componentType": 5126,
      "count": 65532,
      "max": [
        0.6334159970283508,
        0.6705869436264038,
        0.86006098985672
      ],
      "min": [
        0.023026973009109497,
        0.08488398790359497,
        0.08605697751045227
      ],
      "type": "VEC3"
    },
    {
      "bufferView": 2,
      "byteOffset": 2359152,
      "componentType": 5126,
      "count": 65532,
      "max": [
        0.9998963475227356,
        0.9999943971633911,
        0.9999958872795105
      ],
      "min": [
        -0.9999862313270569,
        -0.9999945163726807,
        -0.9994012713432312
      ],
      "type": "VEC3"
    },
    {
      "bufferView": 1,
      "byteOffset": 524256,
      "componentType": 5126,
      "count": 65532,
      "max": [
        0.5164809823036194,
        0.7672309875488281
      ],
      "min": [
        0.04125300049781799,
        0.19467900693416595
      ],
      "type": "VEC2"
    },
    {
      "bufferView": 0,
      "byteOffset": 1345092,
      "componentType": 5125,
      "count": 320925,
      "type": "SCALAR"
    },
    {
      "bufferView": 2,
      "byteOffset": 3145536,
      "componentType": 5126,
      "count": 65532,
      "max": [
        0.6334319710731506,
        0.6945539712905884,
        0.8589159846305847
      ],
      "min": [
        0.021625995635986328,
        0.13249999284744263,
        0.0
      ],
      "type": "VEC3"
    },
    {
      "bufferView": 2,
      "byteOffset": 3931920,
      "componentType": 5126,
      "count": 65532,
      "max": [
        0.9999865293502808,
        0.9999827146530151,
        0.9998846054077148
      ],
      "min": [
        -0.9999874234199524,
        -0.9971893429756165,
        -0.9999645948410034
      ],
      "type": "VEC3"
    },
    {
      "bufferView": 1,
      "byteOffset": 1048512,
      "componentType": 5126,
      "count": 65532,
      "max": [
        0.9285280108451843,
        0.76180499792099
      ],
      "min": [
        0.050703998655080795,
        0.1918559968471527
      ],
      "type": "VEC2"
    },
    {
      "bufferView": 0,
      "byteOffset": 2628792,
      "componentType": 5125,
      "count": 323481,
      "type": "SCALAR"
    },
    {
      "bufferView": 2,
      "byteOffset": 4718304,
      "componentType": 5126,
      "count": 65532,
      "max": [
        0.6044939756393433,
        0.6185059547424316,
        0.8421299457550049
      ],
      "min": [
        0.04604098200798035,
        0.003627985715866089,
        0.04920199513435364
      ],
      "type": "VEC3"
    },
    {
      "bufferView": 2,
      "byteOffset": 5504688,
      "componentType": 5126,
      "count": 65532,
      "max": [
        0.9999989867210388,
        0.9999327659606934,
        0.9999736547470093
      ],
      "min": [
        -0.9999769330024719,
        -0.9987877607345581,
        -0.9999858140945435
      ],
      "type": "VEC3"
    },
    {
      "bufferView": 1,
      "byteOffset": 1572768,
      "componentType": 5126,
      "count": 65532,
      "max": [
        0.9923359751701355,
        0.9990789890289307
      ],
      "min": [
        0.010669000446796417,
        0.18043400347232819
      ],
      "type": "VEC2"
    },
    {
      "bufferView": 0,
      "byteOffset": 3922716,
      "componentType": 5125,
      "count": 338172,
      "type": "SCALAR"
    },
    {
      "bufferView": 2,
      "byteOffset": 6291072,
      "componentType": 5126,
      "count": 65532,
      "max": [
        0.6044600009918213,
        0.45784297585487366,
        0.7882789969444275
      ],
      "min": [
        0.002866983413696289,
        0.0,
        0.04065299034118652
      ],
      "type": "VEC3"
    },
    {
      "bufferView": 2,
      "byteOffset": 7077456,
      "componentType": 5126,
      "count": 65532,
      "max": [
        0.9999940395355225,
        0.9999495148658752,
        0.9999318718910217
      ],
      "min": [
        -0.9997806549072266,
        -0.9998897910118103,
        -0.9999626278877258
      ],
      "type": "VEC3"
    },
    {
      "bufferView": 1,
      "byteOffset": 2097024,
      "componentType": 5126,
      "count": 65532,
      "max": [
        0.992326021194458,
        0.9992790222167969
      ],
      "min": [
        0.0016710000345483422,
        0.25057798624038696
      ],
      "type": "VEC2"
    },
    {
      "bufferView": 0,
      "byteOffset": 5275404,
      "componentType": 5125,
      "count": 313668,
      "type": "SCALAR"
    },
    {
      "bufferView": 2,
      "byteOffset": 7863840,
      "componentType": 5126,
      "count": 65532,
      "max": [
        0.6022769808769226,
        0.6875640153884888,
        0.840338945388794
      ],
      "min": [
        0.0,
        0.00083199143409729,
        0.0
      ],
      "type": "VEC3"
    },
    {
      "bufferView": 2,
      "byteOffset": 8650224,
      "componentType": 5126,
      "count": 65532,
      "max": [
        0.9999505877494812,
        0.9999861717224121,
        0.9999736547470093
      ],
      "min": [
        -0.9999726414680481,
        -0.9998772740364075,
        -0.9999575018882751
      ],
      "type": "VEC3"
    },
    {
      "bufferView": 1,
      "byteOffset": 2621280,
      "componentType": 5126,
      "count": 65532,
      "max": [
        0.9951440095901489,
        0.9990019798278809
      ],
      "min": [
        0.001597000053152442,
        0.13180600106716156
      ],
      "type": "VEC2"
    },
    {
      "bufferView": 0,
      "byteOffset": 6530076,
      "componentType": 5125,
      "count": 263253,
      "type": "SCALAR"
    },
    {
      "bufferView": 2,
      "byteOffset": 9436608,
      "componentType": 5126,
      "count": 34607,
      "max": [
        0.6235619783401489,
        0.6931159496307373,
        0.8419339656829834
      ],
      "min": [
        0.02122199535369873,
        0.1774439811706543,
        0.11680197715759277
      ],
      "type": "VEC3"
    },
    {
      "bufferView": 2,
      "byteOffset": 9851892,
      "componentType": 5126,
      "count": 34607,
      "max": [
        0.999931275844574,
        0.9999776482582092,
        0.9998781085014343
      ],
      "min": [
        -0.9999731779098511,
        -0.9999945163726807,
        -0.9997775554656982
      ],
      "type": "VEC3"
    },
    {
      "bufferView": 1,
      "byteOffset": 3145536,
      "componentType": 5126,
      "count": 34607,
      "max": [
        0.9903690218925476,
        0.9968979954719543
      ],
      "min": [
        0.010626999661326408,
        0.19997400045394897
      ],
      "type": "VEC2"
    },
    {
      "bufferView": 0,
      "byteOffset": 7583088,
      "componentType": 5125,
      "count": 121638,
      "type": "SCALAR"
    }
  ],
  "asset": {
    "extras": {
      "author": "Jezreel Valley Regional Project (https://sketchfab.com/jvrp)",
      "license": "CC-BY-NC-ND-4.0 (http://creativecommons.org/licenses/by-nc-nd/4.0/)",
      "source": "https://sketchfab.com/3d-models/lion-statue-from-legio-396348c4de454e5c841cc878ed240bbf",
      "title": "Lion Statue from Legio"
    },
    "generator": "Sketchfab-12.67.0",
    "version": "2.0"
  },
  "bufferViews": [
    {
      "buffer": 0,
      "byteLength": 8069640,
      "name": "floatBufferViews",
      "target": 34963
    },
    {
      "buffer": 0,
      "byteLength": 3422392,
      "byteOffset": 8069640,
      "byteStride": 8,
      "name": "floatBufferViews",
      "target": 34962
    },
    {
      "buffer": 0,
      "byteLength": 10267176,
      "byteOffset": 11492032,
      "byteStride": 12,
      "name": "floatBufferViews",
      "target": 34962
    }
  ],
  "buffers": [
    {
      "byteLength": 21759208,
      "uri": "scene.bin"
    }
  ],
  "extensionsUsed": [
    "KHR_materials_unlit"
  ],
  "images": [
    {
      "uri": "textures/model_baseColor.jpeg"
    }
  ],
  "materials": [
    {
      "doubleSided": true,
      "extensions": {
        "KHR_materials_unlit": {}
      },
      "name": "model",
      "pbrMetallicRoughness": {
        "baseColorTexture": {
          "index": 0
        },
        "metallicFactor": 0.0
      }
    }
  ],
  "meshes": [
    {
      "name": "Object_0",
      "primitives": [
        {
          "attributes": {
            "NORMAL": 1,
            "POSITION": 0,
            "TEXCOORD_0": 2
          },
          "indices": 3,
          "material": 0,
          "mode": 4
        }
      ]
    },
    {
      "name": "Object_1",
      "primitives": [
        {
          "attributes": {
            "NORMAL": 5,
            "POSITION": 4,
            "TEXCOORD_0": 6
          },
          "indices": 7,
          "material": 0,
          "mode": 4
        }
      ]
    },
    {
      "name": "Object_2",
      "primitives": [
        {
          "attributes": {
            "NORMAL": 9,
            "POSITION": 8,
            "TEXCOORD_0": 10
          },
          "indices": 11,
          "material": 0,
          "mode": 4
        }
      ]
    },
    {
      "name": "Object_3",
      "primitives": [
        {
          "attributes": {
            "NORMAL": 13,
            "POSITION": 12,
            "TEXCOORD_0": 14
          },
          "indices": 15,
          "material": 0,
          "mode": 4
        }
      ]
    },
    {
      "name": "Object_4",
      "primitives": [
        {
          "attributes": {
            "NORMAL": 17,
            "POSITION": 16,
            "TEXCOORD_0": 18
          },
          "indices": 19,
          "material": 0,
          "mode": 4
        }
      ]
    },
    {
      "name": "Object_5",
      "primitives": [
        {
          "attributes": {
            "NORMAL": 21,
            "POSITION": 20,
            "TEXCOORD_0": 22
          },
          "indices": 23,
          "material": 0,
          "mode": 4
        }
      ]
    },
    {
      "name": "Object_6",
      "primitives": [
        {
          "attributes": {
            "NORMAL": 25,
            "POSITION": 24,
            "TEXCOORD_0": 26
          },
          "indices": 27,
          "material": 0,
          "mode": 4
        }
      ]
    }
  ],
  "nodes": [
    {
      "children": [
        1
      ],
      "matrix": [
        1.0,
        0.0,
        0.0,
        0.0,
        0.0,
        0.9737738370895386,
        -0.2275181561708448,
        0.0,
        0.0,
        0.2275181561708448,
        0.9737738370895386,
        0.0,
        0.0,
        -5.708784556190948e-07,
        -4.1059240629692805e-07,
        1.0
      ],
      "name": "Sketchfab_model"
    },
    {
      "children": [
        2
      ],
      "matrix": [
        1.0,
        0.0,
        0.0,
        0.0,
        0.0,
        1.0,
        0.0,
        0.0,
        0.0,
        0.0,
        1.0,
        0.0,
        -0.3167159855365753,
        -0.3472769856452942,
        -0.43014198541641235,
        1.0
      ],
      "name": "model.obj.cleaner.materialmerger.gles"
    },
    {
      "children": [
        3,
        4,
        5,
        6,
        7,
        8,
        9
      ],
      "name": "Object_2"
    },
    {
      "mesh": 0,
      "name": "Object_3"
    },
    {
      "mesh": 1,
      "name": "Object_4"
    },
    {
      "mesh": 2,
      "name": "Object_5"
    },
    {
      "mesh": 3,
      "name": "Object_6"
    },
    {
      "mesh": 4,
      "name": "Object_7"
    },
    {
      "mesh": 5,
      "name": "Object_8"
    },
    {
      "mesh": 6,
      "name": "Object_9"
    }
  ],
  "samplers": [
    {
      "magFilter": 9729,
      "minFilter": 9987,
      "wrapS": 10497,
      "wrapT": 10497
    }
  ],
  "scene": 0,
  "scenes": [
    {
      "name": "Sketchfab_Scene",
      "nodes": [
        0
      ]
    }
  ],
  "textures": [
    {
      "sampler": 0,
      "source": 0
    }
  ]
}
