{
  "accessors": [
    {
      "bufferView": 2,
      "componentType": 5126,
      "count": 65532,
      "max": [
        4.022421836853027,
        3.1181631088256836,
        6.816596984863281
      ],
      "min": [
        -10.250329971313477,
        -24.895687103271484,
        -11.310151100158691
      ],
      "type": "VEC3"
    },
    {
      "bufferView": 2,
      "byteOffset": 786384,
      "componentType": 5126,
      "count": 65532,
      "max": [
        0.9995191097259521,
        0.9991254806518555,
        0.999954342842102
      ],
      "min": [
        -0.9999377727508545,
        -0.9999995827674866,
        -0.9999992251396179
      ],
      "type": "VEC3"
    },
    {
      "bufferView": 1,
      "componentType": 5126,
      "count": 65532,
      "max": [
        0.9992679953575134,
        0.9893289804458618
      ],
      "min": [
        0.0007319999858736992,
        0.0007360000163316727
      ],
      "type": "VEC2"
    },
    {
      "bufferView": 0,
      "componentType": 5125,
      "count": 359682,
      "type": "SCALAR"
    },
    {
      "bufferView": 2,
      "byteOffset": 1572768,
      "componentType": 5126,
      "count": 65533,
      "max": [
        10.048409461975098,
        3.0795340538024902,
        7.279465198516846
      ],
      "min": [
        -9.54002857208252,
        -20.821779251098633,
        -13.645645141601563
      ],
      "type": "VEC3"
    },
    {
      "bufferView": 2,
      "byteOffset": 2359164,
      "componentType": 5126,
      "count": 65533,
      "max": [
        0.9996933341026306,
        0.9983015060424805,
        0.9998489022254944
      ],
      "min": [
        -0.9999818801879883,
        -0.9999998807907104,
        -0.9999184608459473
      ],
      "type": "VEC3"
    },
    {
      "bufferView": 1,
      "byteOffset": 524256,
      "componentType": 5126,
      "count": 65533,
      "max": [
        0.9992679953575134,
        0.9931309819221497
      ],
      "min": [
        0.002051000017672777,
        0.0007360000163316727
      ],
      "type": "VEC2"
    },
    {
      "bufferView": 0,
      "byteOffset": 1438728,
      "componentType": 5125,
      "count": 354870,
      "type": "SCALAR"
    },
    {
      "bufferView": 2,
      "byteOffset": 3145560,
      "componentType": 5126,
      "count": 65533,
      "max": [
        10.58902359008789,
        3.095479965209961,
        7.279465198516846
      ],
      "min": [
        -6.547937870025635,
        -25.030092239379883,
        -13.645645141601563
      ],
      "type": "VEC3"
    },
    {
      "bufferView": 2,
      "byteOffset": 3931956,
      "componentType": 5126,
      "count": 65533,
      "max": [
        0.9999906420707703,
        0.999525785446167,
        0.999954342842102
      ],
      "min": [
        -0.9999867677688599,
        -1.0,
        -0.9997330904006958
      ],
      "type": "VEC3"
    },
    {
      "bufferView": 1,
      "byteOffset": 1048520,
      "componentType": 5126,
      "count": 65533,
      "max": [
        0.9992679953575134,
        0.9976699948310852
      ],
      "min": [
        0.0007319999858736992,
        0.0007360000163316727
      ],
      "type": "VEC2"
    },
    {
      "bufferView": 0,
      "byteOffset": 2858208,
      "componentType": 5125,
      "count": 345036,
      "type": "SCALAR"
    },
    {
      "bufferView": 2,
      "byteOffset": 4718352,
      "componentType": 5126,
      "count": 65532,
      "max": [
        6.106427192687988,
        -10.825485229492188,
        4.712366104125977
      ],
      "min": [
        -6.816996097564697,
        -24.411359786987305,
        -6.395434856414795
      ],
      "type": "VEC3"
    },
    {
      "bufferView": 2,
      "byteOffset": 5504736,
      "componentType": 5126,
      "count": 65532,
      "max": [
        0.9999731183052063,
        0.9994951486587524,
        0.9999775290489197
      ],
      "min": [
        -0.9999719858169556,
        -0.999845027923584,
        -0.9999881386756897
      ],
      "type": "VEC3"
    },
    {
      "bufferView": 1,
      "byteOffset": 1572784,
      "componentType": 5126,
      "count": 65532,
      "max": [
        0.9992679953575134,
        0.9992640018463135
      ],
      "min": [
        0.0007319999858736992,
        0.0007360000163316727
      ],
      "type": "VEC2"
    },
    {
      "bufferView": 0,
      "byteOffset": 4238352,
      "componentType": 5125,
      "count": 357618,
      "type": "SCALAR"
    },
    {
      "bufferView": 2,
      "byteOffset": 6291120,
      "componentType": 5126,
      "count": 63122,
      "max": [
        6.115797996520996,
        3.1054909229278564,
        0.5681549906730652
      ],
      "min": [
        -3.428002119064331,
        -25.09836769104004,
        -12.963879585266113
      ],
      "type": "VEC3"
    },
    {
      "bufferView": 2,
      "byteOffset": 7048584,
      "componentType": 5126,
      "count": 63122,
      "max": [
        0.9998016357421875,
        0.9994930028915405,
        0.9987462162971497
      ],
      "min": [
        -0.9997303485870361,
        -0.9999998807907104,
        -0.9999807476997375
      ],
      "type": "VEC3"
    },
    {
      "bufferView": 1,
      "byteOffset": 2097040,
      "componentType": 5126,
      "count": 63122,
      "max": [
        0.9991459846496582,
        0.9984059929847717
      ],
      "min": [
        0.0007319999858736992,
        0.0007360000163316727
      ],
      "type": "VEC2"
    },
    {
      "bufferView": 0,
      "byteOffset": 5668824,
      "componentType": 5125,
      "count": 346518,
      "type": "SCALAR"
    }
  ],
  "asset": {
    "extras": {
      "author": "Geoffrey Marchal (https://sketchfab.com/geoffreymarchal)",
      "license": "CC-BY-NC-4.0 (http://creativecommons.org/licenses/by-nc/4.0/)",
      "source": "https://sketchfab.com/3d-models/portrait-of-a-roman-civil-servant-2d1fc02dfb1a4bbb8c97b4fab2b4f884",
      "title": "Portrait of a Roman civil servant"
    },
    "generator": "Sketchfab-12.68.0",
    "version": "2.0"
  },
  "bufferViews": [
    {
      "buffer": 0,
      "byteLength": 7054896,
      "name": "floatBufferViews",
      "target": 34963
    },
    {
      "buffer": 0,
      "byteLength": 2602016,
      "byteOffset": 7054896,
      "byteStride": 8,
      "name": "floatBufferViews",
      "target": 34962
    },
    {
      "buffer": 0,
      "byteLength": 7806048,
      "byteOffset": 9656912,
      "byteStride": 12,
      "name": "floatBufferViews",
      "target": 34962
    }
  ],
  "buffers": [
    {
      "byteLength": 17462960,
      "uri": "scene.bin"
    }
  ],
  "images": [
    {
      "uri": "textures/Material_0_baseColor.jpeg"
    }
  ],
  "materials": [
    {
      "doubleSided": true,
      "name": "Material_0",
      "pbrMetallicRoughness": {
        "baseColorTexture": {
          "index": 0
        },
        "metallicFactor": 0.0
      }
    }
  ],
  "meshes": [
    {
      "name": "Object_0",
      "primitives": [
        {
          "attributes": {
            "NORMAL": 1,
            "POSITION": 0,
            "TEXCOORD_0": 2
          },
          "indices": 3,
          "material": 0,
          "mode": 4
        }
      ]
    },
    {
      "name": "Object_1",
      "primitives": [
        {
          "attributes": {
            "NORMAL": 5,
            "POSITION": 4,
            "TEXCOORD_0": 6
          },
          "indices": 7,
          "material": 0,
          "mode": 4
        }
      ]
    },
    {
      "name": "Object_2",
      "primitives": [
        {
          "attributes": {
            "NORMAL": 9,
            "POSITION": 8,
            "TEXCOORD_0": 10
          },
          "indices": 11,
          "material": 0,
          "mode": 4
        }
      ]
    },
    {
      "name": "Object_3",
      "primitives": [
        {
          "attributes": {
            "NORMAL": 13,
            "POSITION": 12,
            "TEXCOORD_0": 14
          },
          "indices": 15,
          "material": 0,
          "mode": 4
        }
      ]
    },
    {
      "name": "Object_4",
      "primitives": [
        {
          "attributes": {
            "NORMAL": 17,
            "POSITION": 16,
            "TEXCOORD_0": 18
          },
          "indices": 19,
          "material": 0,
          "mode": 4
        }
      ]
    }
  ],
  "nodes": [
    {
      "children": [
        1
      ],
      "matrix": [
        -0.9645988345146179,
        1.6348662324294056e-16,
        0.2637217044830322,
        0.0,
        -1.6653345369377348e-16,
        -1.0,
        1.1102230246251565e-16,
        0.0,
        0.2637217044830322,
        7.860637804087318e-18,
        0.9645988345146179,
        0.0,
        1.1722217798233032,
        -14.17329025268555,
        14.015934944152828,
        1.0
      ],
      "name": "Sketchfab_model"
    },
    {
      "children": [
        2,
        3,
        4,
        5,
        6
      ],
      "name": "fonctionnaire romain.obj.cleaner.materialmerger.gles"
    },
    {
      "mesh": 0,
      "name": "Object_2"
    },
    {
      "mesh": 1,
      "name": "Object_3"
    },
    {
      "mesh": 2,
      "name": "Object_4"
    },
    {
      "mesh": 3,
      "name": "Object_5"
    },
    {
      "mesh": 4,
      "name": "Object_6"
    }
  ],
  "samplers": [
    {
      "magFilter": 9729,
      "minFilter": 9987,
      "wrapS": 10497,
      "wrapT": 10497
    }
  ],
  "scene": 0,
  "scenes": [
    {
      "name": "Sketchfab_Scene",
      "nodes": [
        0
      ]
    }
  ],
  "textures": [
    {
      "sampler": 0,
      "source": 0
    }
  ]
}
